<?xml version="1.0" encoding="UTF-8" standalone="yes"?><svg xmlns="http://www.w3.org/2000/svg" xmlns:xlink="http://www.w3.org/1999/xlink" height="605pt" style="width:1416px;height:605px;" version="1.1" viewBox="0 0 1416 605" width="1416pt"><defs><filter height="300%" id="f1" width="300%" x="-1" y="-1"><feGaussianBlur result="blurOut" stdDeviation="2.0"/><feColorMatrix in="blurOut" result="blurOut2" type="matrix" values="0 0 0 0 0 0 0 0 0 0 0 0 0 0 0 0 0 0 .4 0"/><feOffset dx="4.0" dy="4.0" in="blurOut2" result="blurOut3"/><feBlend in="SourceGraphic" in2="blurOut3" mode="normal"/></filter></defs><g><rect fill="#FEFECE" filter="url(#f1)" height="50" rx="12.5" ry="12.5" style="stroke: #A80036; stroke-width: 1.5;" width="113" x="237" y="110"/><line style="stroke: #A80036; stroke-width: 1.5;" x1="237" x2="350" y1="136.2969" y2="136.2969"/><text fill="#000000" font-family="sans-serif" font-size="14" lengthAdjust="spacingAndGlyphs" textLength="93" x="247" y="127.9951">setAlarmHour</text><rect fill="#FEFECE" filter="url(#f1)" height="50" rx="12.5" ry="12.5" style="stroke: #A80036; stroke-width: 1.5;" width="127" x="6" y="258"/><line style="stroke: #A80036; stroke-width: 1.5;" x1="6" x2="133" y1="284.2969" y2="284.2969"/><text fill="#000000" font-family="sans-serif" font-size="14" lengthAdjust="spacingAndGlyphs" textLength="107" x="16" y="275.9951">setAlarmMinute</text><rect fill="#FEFECE" filter="url(#f1)" height="50" rx="12.5" ry="12.5" style="stroke: #A80036; stroke-width: 1.5;" width="84" x="604.75" y="546"/><line style="stroke: #A80036; stroke-width: 1.5;" x1="604.75" x2="688.75" y1="572.2969" y2="572.2969"/><text fill="#000000" font-family="sans-serif" font-size="14" lengthAdjust="spacingAndGlyphs" textLength="64" x="614.75" y="563.9951">ringAlarm</text><ellipse cx="921.25" cy="18" fill="#000000" filter="url(#f1)" rx="10" ry="10" style="stroke: none; stroke-width: 1.0;"/><rect fill="#FEFECE" filter="url(#f1)" height="50" rx="12.5" ry="12.5" style="stroke: #A80036; stroke-width: 1.5;" width="113" x="865" y="110"/><line style="stroke: #A80036; stroke-width: 1.5;" x1="865" x2="978" y1="136.2969" y2="136.2969"/><text fill="#000000" font-family="sans-serif" font-size="14" lengthAdjust="spacingAndGlyphs" textLength="93" x="875" y="127.9951">setClockHour</text><rect fill="#FEFECE" filter="url(#f1)" height="50" rx="12.5" ry="12.5" style="stroke: #A80036; stroke-width: 1.5;" width="127" x="858" y="258"/><line style="stroke: #A80036; stroke-width: 1.5;" x1="858" x2="985" y1="284.2969" y2="284.2969"/><text fill="#000000" font-family="sans-serif" font-size="14" lengthAdjust="spacingAndGlyphs" textLength="107" x="868" y="275.9951">setClockMinute</text><rect fill="#FEFECE" filter="url(#f1)" height="50" rx="12.5" ry="12.5" style="stroke: #A80036; stroke-width: 1.5;" width="84" x="604.75" y="402"/><line style="stroke: #A80036; stroke-width: 1.5;" x1="604.75" x2="688.75" y1="428.2969" y2="428.2969"/><text fill="#000000" font-family="sans-serif" font-size="14" lengthAdjust="spacingAndGlyphs" textLength="64" x="614.75" y="419.9951">clockRun</text><path d="M921.25,28.024 C921.25,44.337 921.25,79.39 921.25,104.723 " fill="none" style="stroke: #A80036; stroke-width: 1.0;"/><polygon fill="#A80036" points="921.25,109.971,925.25,100.971,921.25,104.971,917.25,100.971,921.25,109.971" style="stroke: #A80036; stroke-width: 1.0;"/><text fill="#000000" font-family="sans-serif" font-size="13" lengthAdjust="spacingAndGlyphs" textLength="140" x="922.25" y="71.0669">/ 00:00 &amp; Ask for time</text><path d="M977.68,128.625 C996.845,128.592 1012.25,130.717 1012.25,135 C1012.25,138.882 999.598,140.991 982.962,141.327 " fill="none" style="stroke: #A80036; stroke-width: 1.0;"/><polygon fill="#A80036" points="977.68,141.375,986.7162,145.2925,982.6798,141.3293,986.643,137.2929,977.68,141.375" style="stroke: #A80036; stroke-width: 1.0;"/><text fill="#000000" font-family="sans-serif" font-size="13" lengthAdjust="spacingAndGlyphs" textLength="93" x="1018.25" y="124.0669">ROTARY_SIG &amp;</text><text fill="#000000" font-family="sans-serif" font-size="13" lengthAdjust="spacingAndGlyphs" textLength="79" x="1025.25" y="139.1997">!(hour&lt;24) /</text><text fill="#000000" font-family="sans-serif" font-size="13" lengthAdjust="spacingAndGlyphs" textLength="48" x="1042.75" y="154.3325">hour=0</text><path d="M977.557,124.756 C1039.44,119.317 1122.25,122.731 1122.25,135 C1122.25,146.933 1043.91,150.49 982.678,145.67 " fill="none" style="stroke: #A80036; stroke-width: 1.0;"/><polygon fill="#A80036" points="977.557,145.244,986.1946,149.976,982.5398,145.6583,986.8575,142.0035,977.557,145.244" style="stroke: #A80036; stroke-width: 1.0;"/><text fill="#000000" font-family="sans-serif" font-size="13" lengthAdjust="spacingAndGlyphs" textLength="93" x="1128.25" y="124.0669">ROTARY_SIG &amp;</text><text fill="#000000" font-family="sans-serif" font-size="13" lengthAdjust="spacingAndGlyphs" textLength="72" x="1138.75" y="139.1997">hour &lt; 24 /</text><text fill="#000000" font-family="sans-serif" font-size="13" lengthAdjust="spacingAndGlyphs" textLength="51" x="1151.25" y="154.3325">hour++</text><path d="M921.25,160.109 C921.25,185.47 921.25,225.4 921.25,252.594 " fill="none" style="stroke: #A80036; stroke-width: 1.0;"/><polygon fill="#A80036" points="921.25,257.855,925.25,248.855,921.25,252.855,917.25,248.855,921.25,257.855" style="stroke: #A80036; stroke-width: 1.0;"/><text fill="#000000" font-family="sans-serif" font-size="13" lengthAdjust="spacingAndGlyphs" textLength="133" x="922.25" y="215.0669">JOYSTICK_SIG / XX:00</text><path d="M984.873,276.26 C1004.168,276.429 1019.25,278.676 1019.25,283 C1019.25,286.919 1006.86,289.131 990.18,289.637 " fill="none" style="stroke: #A80036; stroke-width: 1.0;"/><polygon fill="#A80036" points="984.873,289.74,993.949,293.5644,989.8721,289.6428,993.7936,285.5659,984.873,289.74" style="stroke: #A80036; stroke-width: 1.0;"/><text fill="#000000" font-family="sans-serif" font-size="13" lengthAdjust="spacingAndGlyphs" textLength="192" x="1025.25" y="279.5669">ROTARY_SIG &amp; !(minute&lt;60) /</text><text fill="#000000" font-family="sans-serif" font-size="13" lengthAdjust="spacingAndGlyphs" textLength="64" x="1091.25" y="294.6997">minute=0</text><path d="M984.69,273.116 C1077.02,266.047 1228.25,269.342 1228.25,283 C1228.25,296.405 1082.58,299.827 989.889,293.266 " fill="none" style="stroke: #A80036; stroke-width: 1.0;"/><polygon fill="#A80036" points="984.69,292.884,993.3719,297.5342,989.6765,293.2512,993.9595,289.5558,984.69,292.884" style="stroke: #A80036; stroke-width: 1.0;"/><text fill="#000000" font-family="sans-serif" font-size="13" lengthAdjust="spacingAndGlyphs" textLength="181" x="1234.25" y="279.5669">ROTARY_SIG &amp; minute&lt; 60 /</text><text fill="#000000" font-family="sans-serif" font-size="13" lengthAdjust="spacingAndGlyphs" textLength="67" x="1293.25" y="294.6997">minute++</text><path d="M874.6,308.088 C823.876,334.28 743.296,375.889 692.665,402.033 " fill="none" style="stroke: #A80036; stroke-width: 1.0;"/><polygon fill="#A80036" points="688.164,404.357,697.9962,403.7841,692.6072,402.064,694.3273,396.675,688.164,404.357" style="stroke: #A80036; stroke-width: 1.0;"/><text fill="#000000" font-family="sans-serif" font-size="13" lengthAdjust="spacingAndGlyphs" textLength="97" x="818.25" y="351.5669">JOYSTICK_SIG  /</text><text fill="#000000" font-family="sans-serif" font-size="13" lengthAdjust="spacingAndGlyphs" textLength="56" x="840.75" y="366.6997">XX:XX:00</text><path d="M644.793,401.961 C641.387,366.189 630.038,298.792 592.25,258 C529.031,189.756 422.152,158.725 354.769,145.336 " fill="none" style="stroke: #A80036; stroke-width: 1.0;"/><polygon fill="#A80036" points="349.584,144.326,357.6518,149.975,354.4915,145.2832,359.1833,142.123,349.584,144.326" style="stroke: #A80036; stroke-width: 1.0;"/><text fill="#000000" font-family="sans-serif" font-size="13" lengthAdjust="spacingAndGlyphs" textLength="93" x="662.25" y="279.5669">JOYSTICK_SIG /</text><text fill="#000000" font-family="sans-serif" font-size="13" lengthAdjust="spacingAndGlyphs" textLength="173" x="624.25" y="294.6997">XX:XX &amp; Ask for alarm time</text><path d="M349.68,128.625 C368.845,128.592 384.25,130.717 384.25,135 C384.25,138.882 371.598,140.991 354.962,141.327 " fill="none" style="stroke: #A80036; stroke-width: 1.0;"/><polygon fill="#A80036" points="349.68,141.375,358.7162,145.2925,354.6798,141.3293,358.643,137.2929,349.68,141.375" style="stroke: #A80036; stroke-width: 1.0;"/><text fill="#000000" font-family="sans-serif" font-size="13" lengthAdjust="spacingAndGlyphs" textLength="93" x="390.25" y="124.0669">ROTARY_SIG &amp;</text><text fill="#000000" font-family="sans-serif" font-size="13" lengthAdjust="spacingAndGlyphs" textLength="79" x="397.25" y="139.1997">!(hour&lt;24) /</text><text fill="#000000" font-family="sans-serif" font-size="13" lengthAdjust="spacingAndGlyphs" textLength="48" x="414.75" y="154.3325">hour=0</text><path d="M349.557,124.756 C411.439,119.317 494.25,122.731 494.25,135 C494.25,146.933 415.906,150.49 354.678,145.67 " fill="none" style="stroke: #A80036; stroke-width: 1.0;"/><polygon fill="#A80036" points="349.557,145.244,358.1946,149.976,354.5398,145.6583,358.8575,142.0035,349.557,145.244" style="stroke: #A80036; stroke-width: 1.0;"/><text fill="#000000" font-family="sans-serif" font-size="13" lengthAdjust="spacingAndGlyphs" textLength="93" x="500.25" y="124.0669">ROTARY_SIG &amp;</text><text fill="#000000" font-family="sans-serif" font-size="13" lengthAdjust="spacingAndGlyphs" textLength="72" x="510.75" y="139.1997">hour &lt; 24 /</text><text fill="#000000" font-family="sans-serif" font-size="13" lengthAdjust="spacingAndGlyphs" textLength="51" x="523.25" y="154.3325">hour++</text><path d="M256.261,160.109 C216.135,186.262 152.237,227.91 110.513,255.106 " fill="none" style="stroke: #A80036; stroke-width: 1.0;"/><polygon fill="#A80036" points="106.294,257.855,116.018,256.2918,110.4828,255.1248,111.6497,249.5897,106.294,257.855" style="stroke: #A80036; stroke-width: 1.0;"/><text fill="#000000" font-family="sans-serif" font-size="13" lengthAdjust="spacingAndGlyphs" textLength="93" x="203.25" y="207.5669">JOYSTICK_SIG /</text><text fill="#000000" font-family="sans-serif" font-size="13" lengthAdjust="spacingAndGlyphs" textLength="36" x="233.75" y="222.6997">XX:XX</text><path d="M132.873,276.26 C152.168,276.429 167.25,278.676 167.25,283 C167.25,286.919 154.863,289.131 138.18,289.637 " fill="none" style="stroke: #A80036; stroke-width: 1.0;"/><polygon fill="#A80036" points="132.873,289.74,141.949,293.5644,137.8721,289.6428,141.7936,285.5659,132.873,289.74" style="stroke: #A80036; stroke-width: 1.0;"/><text fill="#000000" font-family="sans-serif" font-size="13" lengthAdjust="spacingAndGlyphs" textLength="192" x="173.25" y="279.5669">ROTARY_SIG &amp; !(minute&lt;60) /</text><text fill="#000000" font-family="sans-serif" font-size="13" lengthAdjust="spacingAndGlyphs" textLength="64" x="239.25" y="294.6997">minute=0</text><path d="M132.69,273.116 C225.017,266.047 376.25,269.342 376.25,283 C376.25,296.405 230.577,299.827 137.889,293.266 " fill="none" style="stroke: #A80036; stroke-width: 1.0;"/><polygon fill="#A80036" points="132.69,292.884,141.3719,297.5342,137.6765,293.2512,141.9595,289.5558,132.69,292.884" style="stroke: #A80036; stroke-width: 1.0;"/><text fill="#000000" font-family="sans-serif" font-size="13" lengthAdjust="spacingAndGlyphs" textLength="181" x="382.25" y="279.5669">ROTARY_SIG &amp; minute&lt; 60 /</text><text fill="#000000" font-family="sans-serif" font-size="13" lengthAdjust="spacingAndGlyphs" textLength="67" x="441.25" y="294.6997">minute++</text><path d="M132.65,299.603 C249.534,328.368 496.442,389.132 599.511,414.498 " fill="none" style="stroke: #A80036; stroke-width: 1.0;"/><polygon fill="#A80036" points="604.607,415.752,596.8245,409.7161,599.752,414.5565,594.9116,417.484,604.607,415.752" style="stroke: #A80036; stroke-width: 1.0;"/><text fill="#000000" font-family="sans-serif" font-size="13" lengthAdjust="spacingAndGlyphs" textLength="93" x="428.25" y="351.5669">JOYSTICK_SIG /</text><text fill="#000000" font-family="sans-serif" font-size="13" lengthAdjust="spacingAndGlyphs" textLength="36" x="458.75" y="366.6997">XX:XX</text><path d="M604.696,429.564 C567.618,433.429 515.284,445.514 489.25,482 C457.538,526.4422 542.252,551.2126 599.237,562.4611 " fill="none" style="stroke: #A80036; stroke-width: 1.0;"/><polygon fill="#A80036" points="604.317,563.4428,596.2393,557.808,599.4078,562.4942,594.7216,565.6627,604.317,563.4428" style="stroke: #A80036; stroke-width: 1.0;"/><text fill="#000000" font-family="sans-serif" font-size="13" lengthAdjust="spacingAndGlyphs" textLength="261" x="490.25" y="495.5669">time_alarm=time &amp; toggle_alarm=true /</text><text fill="#000000" font-family="sans-serif" font-size="13" lengthAdjust="spacingAndGlyphs" textLength="183" x="531.25" y="510.6997">buzzer_start &amp; led_red_flash</text><path d="M687.764,562.219 C713.715,554.9786 745.166,541.3209 761.25,516 C769.352,503.2446 769.352,494.755 761.25,482 C746.172,458.262 717.587,444.774 692.69,437.215 " fill="none" style="stroke: #A80036; stroke-width: 1.0;"/><polygon fill="#A80036" points="687.764,435.781,695.2875,442.1369,692.5648,437.1784,697.5233,434.4556,687.764,435.781" style="stroke: #A80036; stroke-width: 1.0;"/><text fill="#000000" font-family="sans-serif" font-size="13" lengthAdjust="spacingAndGlyphs" textLength="228" x="769.25" y="495.5669">ROTARY_SIG|JOYSTICK_SIG|after 5s /</text><text fill="#000000" font-family="sans-serif" font-size="13" lengthAdjust="spacingAndGlyphs" textLength="186" x="792.25" y="510.6997">buzzer_stop &amp; !led_red_flash</text><path d="M688.068,420.343 C706.441,419.754 722.25,421.973 722.25,427 C722.25,431.556 709.266,433.806 693.157,433.749 " fill="none" style="stroke: #A80036; stroke-width: 1.0;"/><polygon fill="#A80036" points="688.068,433.657,696.9945,437.8184,693.0672,433.747,697.1386,429.8197,688.068,433.657" style="stroke: #A80036; stroke-width: 1.0;"/><text fill="#000000" font-family="sans-serif" font-size="13" lengthAdjust="spacingAndGlyphs" textLength="258" x="728.25" y="431.0669">after 1s / second++ &amp; led_green_toggle</text><path d="M687.901,419.176 C782.656,409.556 993.25,412.164 993.25,427 C993.25,441.575 789.994,444.348 693.004,435.32 " fill="none" style="stroke: #A80036; stroke-width: 1.0;"/><polygon fill="#A80036" points="687.901,434.824,696.4726,439.6746,692.8776,435.3069,697.2453,431.712,687.901,434.824" style="stroke: #A80036; stroke-width: 1.0;"/><text fill="#000000" font-family="sans-serif" font-size="13" lengthAdjust="spacingAndGlyphs" textLength="86" x="1104.25" y="423.5669">ROTARY_SIG /</text><text fill="#000000" font-family="sans-serif" font-size="13" lengthAdjust="spacingAndGlyphs" textLength="300" x="999.25" y="438.6997">bool toggle_alarm = toggle&amp; led_yellow_toggle</text></g></svg>